<?xml version="1.0" encoding="utf-8"?>
<!-- Generator: Adobe Illustrator 21.1.0, SVG Export Plug-In . SVG Version: 6.00 Build 0)  -->
<svg version="1.1" id="art" xmlns="http://www.w3.org/2000/svg" xmlns:xlink="http://www.w3.org/1999/xlink" x="0px" y="0px"
	 viewBox="0 0 679.6 800" style="enable-background:new 0 0 679.6 800;" xml:space="preserve">
<style type="text/css">
	.st0{fill:#EEE938;}
	.st1{fill:#61B4E4;}
	.st2{fill:#DD2397;}
	.st3{fill:#080909;}
</style>
<title>birthday-cake</title>
<path class="st0" d="M613.7,569c-9.1-1.1-18.1-2.1-27.2-3.2c-8-1-15.9-1.9-23.9-2.8c-8.8-1.1-17.5-2.2-26.3-3.4
	c-7.5-1-15-1.9-22.5-2.9c-8.4-1.1-16.8-2.2-25.1-3.4c-7.3-1-14.7-1.9-22-2.9c-6-0.8-12.2-1.7-18.2-2.4c-6.2-0.9-12.5-1.7-18.7-2.4
	c-6.2-0.8-12.5-1.7-18.7-2.4c-6.3-0.8-12.7-1.7-18.9-2.4c-6.6-0.9-13.3-1.8-19.9-2.5c-5.2-0.7-10.4-1.3-15.6-1.9
	c-6.8-0.9-13.6-1.8-20.5-2.5c-5.4-0.7-10.7-1.3-16.1-1.9c-5.8-0.7-11.8-1.5-17.6-2.1c-5.8-0.7-11.8-1.3-17.6-1.9
	c-6.3-0.7-12.7-1.5-19-2.1c-5-0.5-10-1-15-1.5c-5.9-0.6-11.9-1.2-17.9-1.7c-4.1-0.4-8.2-0.7-12.3-1c-7.7-0.6-15.4-1.2-23.1-1.7
	c-2.6-0.2-5.3-0.3-7.9-0.5c-6.4-0.5-12.9-0.7-19.3-1.1c-9.2-0.7-18.2-1.3-27.4-2c-6.6-0.6-13.3-1.3-19.9-2
	c-9.2-1.1-18.2-2.4-27.3-4.2c-4.8-0.9-9.5-1.9-14.3-3c-2.4-0.5-2.4-0.5-2.4-3c0-4.9-0.1-9.7-0.2-14.6c-0.6-30.1-0.1-60.3-0.4-90.4
	c-0.1-9.1-0.8-18.1-1.2-27.2c-0.4-10-0.6-20.1,0-30.1c0.3-4.8,0.7-9.5,1.7-14.2c1.1-5.2,4.1-7.5,9.4-7.6c1.8,0,3.6,0,5.4,0.4
	c5.2,1.1,10.2,2,15.4,3.1c7.8,1.5,15.7,2.6,23.5,3.9c13.7,2.1,27.6,4.1,41.2,6.5c10.6,1.9,21.1,4.5,31.7,6.7
	c10.2,2.1,20.5,4,30.7,5.7c11,1.9,22,3.7,33,5.7c21.5,3.7,42.7,8.9,63.9,13.5c15.1,3.3,30.2,6.3,45.3,9.6c13.6,2.9,27.4,6,41,9.2
	c22,5.1,44,10.3,66,16.1c20,5.3,39.8,10.7,59.5,16.6c16.1,4.8,32.2,9.5,48.5,13.3c11.6,2.7,23.3,5,35.1,6.5c1.7,0.2,3.3,0.4,4.9,0.6
	c-4.4,4.2-6.3,9.5-6.8,15.4c-0.6,7.1-1.5,14.1-2.2,21.2c-1,9.2-2,18.3-3,27.5c-1,8.7-1.9,17.2-2.8,25.9c-1,9-1.9,17.8-3,26.8
	C615,558.6,614.6,563.9,613.7,569z"/>
<path class="st0" d="M89.9,722.8c-1.5-3.2-1.9-6.5-1.9-10c0.1-3.1,0.4-6.3,0.3-9.5c-0.2-3.9-0.2-7.8-0.2-11.7
	c-0.1-6.3,0-12.6-0.2-18.9c-0.4-11.3-0.1-22.6-0.5-34c-0.2-7-0.2-14.1-0.4-21.1c-0.3-10.2-0.6-20.6-1-30.8
	c-0.4-9.1-0.9-18.1-1.3-27.2c0-0.2,0-0.3,0-0.5c0-1.1-0.8-2.4,0.1-3.2c0.8-0.8,2.1-0.3,3.3-0.2c9,0.2,17.8,0.3,26.8,0.6
	c8.1,0.2,16.2,0.5,24.3,0.9c9.5,0.4,19,0.9,28.5,1.4c7.9,0.4,15.7,0.9,23.6,1.4c8.5,0.6,16.9,1.1,25.3,1.8
	c10.2,0.9,20.5,1.7,30.7,2.7c10.4,1.1,20.9,2.2,31.3,3.4c10.5,1.2,20.9,2.4,31.5,3.7c10.8,1.4,21.5,2.9,32.3,4.4
	c11.3,1.6,22.5,3,33.8,4.7c9.8,1.4,19.7,2.9,29.5,4.3c9.9,1.5,19.9,2.8,29.8,4.2c8,1.2,16,2.3,24.1,3.4c7.2,1,14.4,1.9,21.6,2.8
	c7.6,1,15.3,2,22.9,3c6.8,0.9,13.6,1.7,20.6,2.4c6,0.7,12.1,1.4,18.1,2c4.9,0.5,9.6,1,14.5,1.5c6,0.6,12.1,1.2,18.1,1.8
	c3.7,0.3,7.3,0.7,11,1c6.9,0.5,13.9,1,20.9,1.5c0,0.2,0,0.5-0.1,0.7c-2.9,8.1-4.1,16.6-5,25c-0.7,6.6-1.3,13.3-1.9,20
	c-0.9,9.1-1.8,18.2-2.5,27.3c-0.9,9.7-1.6,19.6-2.4,29.3c-1.2,12.6-2,25.1-3,37.7c-0.5,5.8-1.1,11.6-1.9,17.4c-0.7,5-2,6-7,5.8
	c-4.1-0.2-8.3-0.5-12.4-1c-10.3-1.1-20.5-2.7-30.8-3.6c-9.5-0.8-19-1.8-28.5-2.5c-7.4-0.7-14.8-1.3-22.2-1.9
	c-9.2-0.9-18.3-1.7-27.6-2.5c-6.8-0.7-13.7-1.3-20.6-1.9c-8.8-0.9-17.4-1.7-26.2-2.5c-7.1-0.7-14.2-1.3-21.2-1.9
	c-9.1-0.9-18-1.7-27.1-2.5c-8.6-0.8-17.1-1.7-25.7-2.4c-9.1-0.9-18-1.8-27.1-2.5c-7.1-0.7-14.2-1.3-21.2-1.9
	c-9.1-0.9-18.2-1.8-27.3-2.5c-6.9-0.7-13.8-1.3-20.9-1.9c-8.8-0.9-17.6-1.7-26.4-2.5c-8.6-0.8-17.1-1.6-25.7-2.4
	c-9.1-0.9-18.2-1.9-27.3-2.9c-9.9-1.1-19.8-2.1-29.7-3.3c-12.4-1.5-24.7-2.9-37-4.5C95.6,723.8,92.6,723.6,89.9,722.8z"/>
<path class="st1" d="M131.2,287.8c0.1,3.4-3,5.2-5.7,3.7c-2.3-1.3-4.7-2.7-6.9-4.1c-5.3-3.1-10.5-6.3-15.8-9.5
	c-0.4-0.2-0.8-0.4-1.2-0.7c-1.9-1.4-2.2-3.4-1.2-5.2c1.1-1.7,3.2-2.2,5.2-1.3c1.5,0.8,2.8,1.7,4.3,2.5c6.3,3.8,12.8,7.6,19.1,11.4
	C130.2,285.6,131.2,286.6,131.2,287.8z"/>
<path class="st0" d="M279.3,304.3c0-0.6,0.2-1.3,0.4-1.9c2.5-8.1,5-16.2,7.5-24.3c0.3-0.9,0.6-1.7,1.2-2.4c1.1-1.4,2.8-1.9,4.5-1.2
	c1.5,0.7,2.4,2.3,2,4.1c-0.2,0.8-0.5,1.6-0.7,2.3c-2.5,8-5,16-7.5,24c-0.1,0.3-0.2,0.6-0.3,0.9c-0.7,1.8-2.4,2.8-4,2.5
	C280.6,308.1,279.2,306.4,279.3,304.3z"/>
<path class="st2" d="M395.4,346.6c0.1,1.9-2.1,3.9-4.6,3.4c-0.5-0.1-1-0.3-1.5-0.6c-8-3.6-15.9-7.3-23.9-10.9
	c-1.5-0.7-2.7-1.6-2.9-3.4c-0.3-2.6,1.7-4.5,4.3-4c0.6,0.1,1.2,0.4,1.7,0.6c8,3.6,15.9,7.3,23.9,10.9
	C394.1,343.4,395.3,344.4,395.4,346.6z"/>
<path class="st2" d="M426.1,291.3c0,2-1.1,3.2-3.4,3.8c-4.9,1.3-9.7,2.4-14.6,3.7c-3.8,1-7.7,2-11.5,2.9c-2.9,0.7-5.2-1.4-4.8-4.2
	c0.3-1.9,1.6-2.6,3.2-3.1c3.5-0.9,7.1-1.8,10.7-2.7c5.3-1.4,10.6-2.7,15.9-4C424.2,287.2,426.1,288.8,426.1,291.3z"/>
<path class="st2" d="M177,255.3c-0.1,0.5-0.3,1.2-0.5,1.9c-2.3,8.1-4.7,16.3-6.9,24.4c-0.1,0.4-0.2,0.9-0.4,1.3
	c-0.8,2.1-2.5,3.2-4.5,2.6c-2.1-0.6-3.2-2.4-2.5-4.8c1-3.8,2.1-7.5,3.2-11.2c1.4-4.7,2.6-9.4,4-14c0.2-0.8,0.5-1.6,0.9-2.3
	c0.9-1.7,2.4-2.2,4.2-1.8C176,251.9,177.1,253.4,177,255.3z"/>
<path class="st2" d="M301.2,253.2c-1.8,0-3.3-1.2-3.7-2.8c-0.4-1.6,0.3-3.2,1.7-4.1c0.6-0.3,1.3-0.5,1.9-0.7
	c8.6-2.1,17.1-4.4,25.7-6.5c2.5-0.7,4.4,0.3,5,2.5c0.6,2.1-0.7,4-3.1,4.7c-6.2,1.7-12.5,3.1-18.7,4.7c-2.1,0.6-4.4,1.1-6.5,1.7
	C302.6,252.9,301.9,253.1,301.2,253.2z"/>
<path class="st2" d="M509.5,324.1c0,1.9-1,3.2-3.1,3.8c-3.3,0.9-6.7,1.7-10,2.5c-5.3,1.4-10.6,2.6-15.9,4c-0.8,0.2-1.5,0.4-2.2,0.3
	c-1.6-0.3-2.8-1.4-3-2.9c-0.3-1.8,0.4-3.2,1.9-4c0.4-0.2,0.8-0.4,1.3-0.5c9-2.2,17.8-4.5,26.8-6.7
	C507.4,320,509.4,321.7,509.5,324.1z"/>
<path class="st2" d="M568.2,372.5c0,1.9-1.2,3.4-3.2,4c-2.8,0.8-5.7,1.5-8.5,2.1c-5.8,1.5-11.6,2.9-17.4,4.4c-0.5,0.1-1,0.3-1.6,0.3
	c-1.8,0-3.3-1.2-3.7-2.7c-0.4-1.6,0.3-3.2,1.7-4.1c0.5-0.3,1.1-0.5,1.7-0.7c8.7-2.2,17.4-4.4,26.1-6.5c2.3-0.6,4.2,0.4,4.7,2.5
	C568.1,372.1,568.2,372.4,568.2,372.5z"/>
<path class="st0" d="M475.4,300.5c0.4,0,0.8,0,1.2,0c2.1,0,3.5,1.2,3.7,3.1c0.2,2.1-1,3.8-3.2,4.2c-2.2,0.4-4.5,0.6-6.7,0.9
	c-6.3,0.8-12.7,1.5-19,2.1c-0.9,0.1-1.8,0.2-2.7,0.1c-2-0.1-3.4-1.6-3.5-3.4c-0.1-1.7,1.3-3.7,3-3.9c3.1-0.3,6.2-0.8,9.4-1.2
	c5.5-0.7,10.9-1.3,16.3-1.9C474.3,300.6,474.9,300.6,475.4,300.5L475.4,300.5z"/>
<path class="st2" d="M287.7,325.8c-2,0-3.6-1.2-3.9-3c-0.3-1.9,0.8-3.7,2.8-4.2c4-1.1,8.1-2,12.2-3.1c4.7-1.2,9.3-2.3,13.9-3.5
	c0.4-0.1,0.9-0.2,1.3-0.3c1.9-0.2,3.5,0.9,4,2.5c0.5,2-0.4,3.9-2.2,4.6c-1.7,0.6-3.3,0.9-5,1.4c-6.9,1.8-13.7,3.4-20.7,5.2
	C289.4,325.6,288.6,325.8,287.7,325.8z"/>
<path class="st0" d="M209,285.3c1.4,0.1,2.4,0.7,3.1,1.9c0.8,1.3,0.7,2.5-0.1,3.8c-0.7,1.1-1.8,1.6-2.9,1.9
	c-8.5,2.1-17,4.3-25.5,6.4c-0.6,0.2-1.2,0.3-1.8,0.3c-1.9-0.1-3.3-1.3-3.7-3.1c-0.3-1.6,0.6-3.3,2.2-4c0.8-0.3,1.6-0.5,2.3-0.7
	c8.1-2,16.1-4.1,24.2-6.1C207.7,285.6,208.4,285.5,209,285.3z"/>
<path class="st0" d="M380.7,314c0,2.5-2,4.1-4.8,3.5c-2.9-0.7-5.8-1.4-8.8-2c-5.7-1.4-11.3-2.7-17.1-4c-0.6-0.1-1.2-0.3-1.8-0.5
	c-1.8-0.8-2.6-2.4-2.2-4.2c0.5-1.9,2.2-3.1,4.2-2.9c0.8,0.1,1.5,0.3,2.1,0.5c8.2,1.9,16.3,3.9,24.5,5.7
	C379.6,310.6,380.6,311.9,380.7,314z"/>
<path class="st0" d="M528.7,337.2c0-2.2,1.3-3.7,3.1-4c1.9-0.3,3.6,0.9,4.1,3c1.7,7,3.3,14.1,4.9,21.2c0.4,1.6,0.8,3.2,1.1,4.8
	c0.1,0.5,0.3,1,0.3,1.6c0.2,2.1-1,3.7-3,4.1c-1.8,0.4-3.6-0.8-4.1-2.6c-0.7-2.3-1.2-4.8-1.8-7.2c-1.5-6.3-2.8-12.7-4.3-19
	C528.9,338.3,528.7,337.7,528.7,337.2z"/>
<path class="st2" d="M262.3,280.2c0,1.7-0.8,2.6-2.1,3.3c-1.4,0.6-2.6,0.6-3.8-0.4c-0.6-0.5-1-1.1-1.4-1.8
	c-4.3-7.6-8.7-15.2-13-22.8c-0.3-0.5-0.5-0.9-0.7-1.4c-0.6-1.8,0.1-3.5,1.7-4.5c1.5-0.8,3.3-0.5,4.5,0.8c0.4,0.4,0.6,0.9,0.9,1.3
	c4.4,7.7,8.8,15.4,13.2,23C262,278.7,262.4,279.5,262.3,280.2z"/>
<path class="st0" d="M414.4,255.2c2.1,0.9,4.2,2,6.2,3.1c0,0.5,0.1,0.9,0.1,1.4c0,2.8-1.9,4.4-4.8,3.8c-1.4-0.3-2.6-0.6-3.9-0.9
	c-7.3-1.8-14.5-3.5-21.8-5.2c-0.6-0.1-1.2-0.3-1.8-0.5c-1.9-0.8-2.7-2.6-2.3-4.4c0.5-1.9,2.4-3.1,4.4-2.6c3.3,0.7,6.5,1.6,9.8,2.3
	c3.9,1,7.9,1.9,11.8,2.8C412.9,255.1,413.6,255.1,414.4,255.2z"/>
<path class="st1" d="M214.7,255.5c1.3-0.1,2.2,0.7,3.1,1.7c2.3,3,4.8,6,7.1,9c3.1,4,6.2,8,9.5,12.1c1,1.2,1.8,2.4,1.2,4.1
	c-1.1,2.8-4.4,3.5-6.3,1.3c-1.9-2.3-3.8-4.8-5.7-7.2c-3.7-4.8-7.5-9.5-11.2-14.3c-0.6-0.7-1.1-1.5-1.3-2.3
	C210.6,257.3,212.2,255.5,214.7,255.5z"/>
<path class="st1" d="M603.4,404.7c-1.1,0.1-1.9-0.5-2.8-1.4c-3.6-3.5-7.2-7-10.8-10.4c-2.8-2.7-5.7-5.5-8.6-8.3
	c-1.8-1.8-1.9-3.5-0.5-5.2c1.2-1.4,2.8-1.8,4.5-1c0.7,0.3,1.3,0.8,1.8,1.4c6.1,6,12.4,12,18.5,18c0.4,0.4,0.9,0.9,1.2,1.4
	c0.8,1.3,0.8,2.5,0.1,3.9C606,404.2,604.8,404.7,603.4,404.7z"/>
<path class="st1" d="M242,321.3c-3.4-0.5-7.3-1-11.3-1.6c-5-0.7-9.9-1.5-14.9-2.1c-1.3-0.2-2.3-0.5-3.2-1.4
	c-1.1-1.1-1.3-2.8-0.6-4.2c0.8-1.5,2.3-2.1,4.2-1.9c2.9,0.4,5.7,0.9,8.7,1.3c6,0.9,12.2,1.8,18.2,2.6c2.2,0.3,3.4,1.6,3.5,3.4
	C246.7,320.1,245.3,321.5,242,321.3z"/>
<path class="st1" d="M314.6,278.7c1.7-0.1,3,1,3.7,2.8c1.4,4,2.6,8,4,11.9c1.5,4.3,2.9,8.7,4.3,13c0.3,0.9,0.7,1.9,0.6,2.8
	c-0.1,1.7-1.3,3-2.8,3.4c-1.6,0.4-3.2-0.4-4-1.8c-0.2-0.4-0.4-0.8-0.5-1.3c-2.8-8.5-5.7-17.1-8.5-25.5c-0.9-2.6,0.2-4.7,2.6-5.3
	C314.2,278.8,314.4,278.7,314.6,278.7z"/>
<path class="st1" d="M419.4,320.8c1.6,0,2.5,0.8,3.2,2c1.5,2.6,3,5.2,4.5,7.8c2.8,5,5.7,10,8.6,15c0.3,0.5,0.6,1.1,0.8,1.7
	c0.7,1.9,0.1,3.7-1.6,4.6s-3.6,0.5-4.8-1.2c-1-1.5-1.8-2.9-2.6-4.5c-3.7-6.5-7.4-13.1-11.1-19.6c-0.4-0.8-0.7-1.5-0.7-2.3
	C415.7,322.2,417.3,320.7,419.4,320.8z"/>
<path class="st1" d="M502.1,375.3c-1.2,0.1-2-0.6-2.9-1.5c-5.6-5.5-11.2-10.8-16.8-16.3c-0.9-0.9-1.8-1.6-2.6-2.4
	c-1.7-1.8-1.8-3.6-0.2-5.2c1.5-1.6,3.5-1.7,5.3-0.3c0.2,0.2,0.5,0.4,0.7,0.6c6.3,6.1,12.6,12.2,18.9,18.3c1.1,1.1,1.9,2.1,1.6,3.7
	C505.6,374.4,504.3,375.3,502.1,375.3z"/>
<path class="st0" d="M256.9,223.8c1.8-1,3.5-1.9,5.2-2.8c2.7,2.4,5.5,5,8.1,7.4c4.4,4.1,8.8,8.2,13.2,12.3c1.2,1.2,1.8,2.4,1.4,4.1
	c-0.4,1.5-1.4,2.2-2.8,2.6c-1.4,0.4-2.5-0.2-3.5-1.1c-1.9-1.8-3.8-3.6-5.7-5.4c-4.6-4.3-9.2-8.6-13.8-12.9
	C257.7,226.8,256.8,225.5,256.9,223.8z"/>
<path class="st1" d="M345.6,285.6c-0.3,0-0.5,0-0.5-0.4C345.5,285.1,345.6,285.3,345.6,285.6z"/>
<path class="st2" d="M353.8,80.2c-3-5.6-4.2-11.9-3.2-18.1c1.3-8.2,6-15.4,9.5-22.8c2.9-6.1,5.1-12.7,6.3-19.3l4.9,37.3
	c0.8,5.1,1.2,10.1,1.2,15.2c0.1,3.2-0.7,6.4-2.1,9.4C365.9,90.2,357.6,87.1,353.8,80.2z"/>
<path class="st1" d="M381,263.7c-0.7-50.5-1.4-100.8-2.2-151.3c-0.1-3.3-0.2-6.8-1.7-9.6c-2.6-4.8-8.4-6.5-13.5-8.2
	c-4.9-1.6-10.4-3.2-14.7-0.5c-4.6,2.9-5,9.3-5.1,14.7c-0.1,21.1-0.2,42.3-0.4,63.4c-0.1,27.8-0.6,55.5-1.4,83.3
	c-0.2,7.1-1.9,22,3.5,27.8c5.5,5.8,22.2,5.1,29.4,4.3c1.5-0.2,3.2-0.4,4.4-1.5c1.9-1.7,2-4.5,2-6.9C381.2,274,381.1,268.8,381,263.7
	z"/>
<path class="st3" d="M646.4,409.9c-1.9-8.1-6.7-14.3-13.3-19.3c-4.2-3.2-8.5-6.3-12.7-9.5c-15.4-11.7-30.5-23.8-46-35.4
	c-50.2-37.3-103-70.2-158.9-98.2c-10.8-5.4-21.7-10.7-32.8-15.6c-0.4-0.2-0.8-0.4-1-0.6c0-2.5,0-5.1-0.1-7.6c0-0.1,0.1-0.1,0.1-0.2
	c0.2-0.4,0.1-0.8-0.1-1.1c-0.1-11.2-0.2-22.5-0.4-33.8c0-0.2,0-0.4,0-0.6v-7.4c0-0.2-0.1-0.4-0.2-0.5c-0.3-13.7-0.6-27.5-1-41.2
	c-0.2-6.7-0.4-13.3-0.4-20c0.1-6.9,1.6-13.4-2.8-19.3c-3.4-4.5-8.8-6.8-14.1-8.4c-5.8-1.7-13-2.3-17.3,2.1
	c-3.6,3.7-3.9,9.5-3.9,14.6c-0.5,35.1-0.9,70.1-1.3,105.2c-3.5-2.1-5.6-4.7-6.4-8.4c-0.4-1.8-0.3-3.4-0.3-5.2
	c-0.1-7.4-3.1-13.3-9.3-17.5c-5.4-3.7-11.3-6.4-17.6-8.2c-8.8-2.4-17.6-3.2-26.6-0.6c-4.5,1.3-8.8,3.1-13,5.1
	c-6.8,3.2-14,4.2-21.4,2.7c-7.6-1.6-15.2-1.4-22.8,0c-6.9,1.3-13.5,3.4-20.1,5.7c-9.9,3.5-20.3,4.6-30.8,3.7
	c-6.4-0.6-12.9-1-19.3-0.4c-6.1,0.5-12.2,1.8-17.7,4.6c-11.7,6-24.2,8.6-37.3,8.1c-12.4-0.5-24,2.2-35,7.7
	c-8.5,4.2-17.1,8.2-26.1,11.4c-9.6,3.5-16.9,10-21,19.5c-2.8,6.2-4.1,12.9-4.7,19.6c-0.8,8.3-0.2,16.5,0.2,24.7
	c0.1,2.7,0.4,5.6,1.3,8.2c2.1,6.3,6.4,10.7,12,14.1c2.9,1.9,5.9,3.5,8.9,5.3c6.4,3.8,9.7,9.5,10,17c0.2,5.7,0,11.2,0.1,16.9
	c0.2,20.1,0.5,40.2,0.7,60.3c0.1,16.6,0.4,33.1,0.9,49.7c0.3,11.9,0.7,23.8,1.2,35.6c0.6,14.2,1.4,28.5,2,42.9
	c0.5,10.7,1,21.3,1.5,32c0.8,16.1,1.5,32.3,2.1,48.3c0.5,11.7,0.9,23.4,1.3,35.1c0.2,5.7,0.4,11.2,0.5,16.9
	c0.1,5.1-1.4,9.7-4.8,13.6c-2,2.3-3.6,5-4.9,7.8c-5.3,11.4-1.6,24.2,9,30.4c4.1,2.4,8.4,4.4,12.9,5.7c9.1,2.8,18.5,3.8,27.9,5
	c8,1,15.9,1.9,23.9,2.9c8.1,1,16.3,1.9,24.4,2.9c7.2,0.9,14.4,1.8,21.6,2.5c7.9,0.9,15.8,1.7,23.7,2.4c7,0.7,14.1,1.3,21.2,1.9
	c9.1,0.8,18,1.7,27.1,2.5c6.8,0.7,13.7,1.3,20.6,1.9c8.8,0.9,17.6,1.7,26.4,2.5c7.2,0.7,14.3,1.3,21.5,1.9
	c8.8,0.9,17.6,1.7,26.4,2.5c7,0.7,14,1.3,21,1.9c9.1,0.9,18,1.7,27.1,2.5c7,0.7,14.1,1.3,21.2,1.9c9,0.9,17.8,1.8,26.7,2.5
	c9,0.9,17.8,1.6,26.7,2.4c10.3,1,20.8,1.9,31.1,2.9c8.8,0.9,17.4,1.7,26.2,2.4c10.5,1,21.1,2,31.8,3c9.7,0.9,19.5,2.1,29.2,3.4
	c4.6,0.6,9.3,1.5,14,0.7c1.7-0.3,3.4-0.5,5.1-1c2.8-0.8,4.8-2.5,5.8-5.4c0.5-1.4,0.9-2.7,1.2-4.1c1.8-7.6,2.2-15.3,2.6-23
	c0.7-14.4,2.2-28.8,3.4-43.3c1-12.3,2.2-24.7,3.4-36.9c1.1-11.5,1.9-22.9,3.2-34.3c1-8.4,2.7-16.6,6-24.4c0.6-1.4,1-2.8,1.2-4.3
	c1-7.7,2-15.3,2.9-23c1.8-14.7,3.4-29.3,5-44c1.5-13.8,2.8-27.8,4.5-41.6c1.7-14.4,3.3-28.7,4.9-43.2c0.3-2.6,1.3-4.7,3-6.7
	C646.2,433.9,649.3,422.6,646.4,409.9z M342.5,247.4c0.2-9.4,0.3-18.9,0.4-28.4c0,0.1,0.1,0.1,0.1,0.2c0.2-10.8,0.3-21.7,0.5-32.5
	c0-0.5,0-1.1,0.1-1.6c-0.1-0.2-0.2-0.4-0.2-0.6c0.3-15.4,0.4-30.9,0.7-46.3c0.1-8.5,0.3-17,0.4-25.4c0.1-5.5-0.9-14.1,3.9-17.8
	c2.1-1.6,4.8-1.9,7.4-1.8c5.4,0.1,10.9,1.3,15,4.9c4.4,3.9,6.3,10.1,6.9,16.1c0.7,7,0.4,14.1,0.5,21.1c0.2,18.5,0.4,37,0.6,55.5
	c-0.2-0.3-0.5-0.5-0.8-0.8c0.1,9.7,0.2,19.6,0.3,29.3c0,4.5,0.2,9,0,13.4c0.3,0.4,0.6,0.9,1,1.3c0.1,10.5,0.2,20.9,0.3,31.4
	c0,5,0,9.9-0.6,14.8c-0.2,1.3-0.4,2.5-0.6,3.7c-0.8,4.1-30.9,0-34-2.1C338.6,277.5,342.4,255.1,342.5,247.4z M638.9,426.1
	c-1,3.9-2.4,7.6-5.5,10.4c-4.4,4.2-6.3,9.5-6.8,15.4c-0.6,7.1-1.5,14.1-2.2,21.2c-1,9.2-2,18.3-3,27.5c-0.9,8.7-1.9,17.2-2.8,25.9
	c-1,9-1.9,17.8-3,26.8c-0.6,5.2-1,10.4-1.9,15.6c-0.1,0.6,0,1.2-0.1,1.8c-1.1,8.4-2.1,16.8-3.1,25.1c-0.5,4.4-1.3,8.7-3.5,12.6
	c0,0.2,0,0.5-0.1,0.7c-2.9,8.1-4.2,16.6-5,25c-0.6,6.7-1.3,13.3-1.9,20c-0.9,9.1-1.8,18.1-2.5,27.3c-0.9,9.7-1.6,19.6-2.4,29.3
	c-1.2,12.6-2,25.1-3,37.7c-0.5,5.8-1.2,11.7-1.9,17.4c-0.7,5-2,6-7,5.8c-4.2-0.2-8.3-0.6-12.4-1c-10.2-1.1-20.5-2.7-30.8-3.6
	c-9.5-0.8-19-1.7-28.5-2.5c-7.4-0.7-14.8-1.3-22.2-1.9c-9.3-0.8-18.4-1.7-27.6-2.5c-6.8-0.7-13.7-1.3-20.6-1.9
	c-8.8-0.9-17.4-1.8-26.2-2.5c-7-0.7-14.1-1.3-21.2-1.9c-9.1-0.9-18-1.7-27.1-2.5c-8.6-0.8-17.1-1.7-25.7-2.4
	c-9.1-0.9-18-1.7-27.1-2.5c-7-0.7-14.1-1.3-21.2-1.9c-9.1-0.8-18.2-1.7-27.3-2.5c-7-0.7-13.9-1.3-20.9-1.9
	c-8.8-0.9-17.6-1.8-26.4-2.5c-8.6-0.9-17.1-1.6-25.7-2.4c-9.1-0.9-18.2-1.9-27.3-2.9c-9.9-1.1-19.8-2.1-29.7-3.3
	c-12.3-1.5-24.7-2.9-37-4.5c-2.7-0.4-5.7-0.5-8.4-1.3c-3.4-0.1-6.6-0.9-10.1-1.3c-7.1-1-14-3-20.7-5.8c-2.4-1.1-4.7-2.3-6.6-4.2
	c-3-2.9-4.7-6.4-4.7-10.6c0-5.6,2.1-10.4,5.6-14.6c3.2-3.9,5.2-8.2,5.9-13.2c0.4-2.6,0.5-5.3,0.4-7.9c-0.2-8-0.7-16.1-0.8-24.1
	c-0.3-17.3-1.3-34.5-2.1-51.7c-1-18.4-2-36.9-2.9-55.4c-0.7-15.3-1.4-30.6-1.8-45.9c-0.7-25.7-1.2-51.4-1.8-77.2
	c-0.3-13.4-0.4-26.8-0.7-40.2c-0.2-9.2-0.3-18.3,0.2-27.5c0.3-4.2,0.4-8.5,0-12.8c-1.2-10.9-6-19.3-15.9-24.6c-2.3-1.3-4.7-2.6-7-4
	c-4.9-2.9-8.1-7.1-9.4-12.7c-0.5-2-0.7-4.1-0.7-6.2c0-3.2-0.2-6.4-0.2-9.6c0-6.8,0.1-13.6,2.3-20.1c2.6-11.9,9-20.3,20.3-24.6
	c0,0.1,0,0.1,0,0.2c0,0.8,0.1,1.3,0.9,1.7c1.6,0.7,3.1,1.6,4.8,2.4c6.9,3.3,11.3,8.8,14,15.9c1.7,4.6,2.5,9.3,3.1,14.2
	c0.4,2.7,0.7,5.5,1.1,8.2c0.9-0.4,1.3-1,1.7-1.5c3.6-4.6,8.5-6.4,14.3-6.6c7.2-0.2,14.4-0.6,21.5-1.7c9.3-1.4,18.1-4.4,25.7-10.3
	c2.9-2.2,6-3.7,9.4-4.8c4.1-1.3,8.3-1.7,12.5-1.7c6.6,0,13.3-0.8,19.8-2.4c7.9-2,15.3-5.1,22.4-9.1c7.4-4.2,15.3-5.6,23.7-4.5
	c8.2,1,16.3,0.8,24.4-0.9c6.4-1.2,12.5-3.6,18.4-6.3c1.7-0.9,3.4-1.9,5.3-2.9c6.6-4.6,13.9-6.6,22-6.1c5.2,0.3,10.4,1,15.7,0.7
	c4.7-0.3,9.1-1.5,13.1-4.3c-0.3-0.5-0.7-0.9-1-1.3c-1-1.4-1-1.4-2.7-0.8c-1.9,0.7-3.7,1.4-5.6,1.9c-4.3,1.1-8.5,0.6-12.8,0.2
	c-5.2-0.5-10.3-0.5-15.5,0.4c-6.6,1.1-12.6,3.6-18.3,7.1c-9.7,6-20.1,9-31.4,9c-3.8,0-7.6-0.5-11.4-0.7c-10.4-0.5-20.1,1.4-29.3,6.7
	c-3,1.7-6.1,3-9.2,4.3c-9.2,3.6-18.8,5.1-28.6,5.1c-9,0-17.2,2.3-24.4,7.9c-2.7,2.1-5.7,3.7-8.8,5c-8.3,3.3-17,4.6-25.9,5.1
	c-3.2,0.2-6.5,0.3-9.8,0.5c-3.8,0.2-7.5,1-11,2.8c-0.5,0.2-0.9,0.7-1.5,0.4c-0.6-2.7-1.3-5.5-2.1-8.2c-2.1-6.8-4.9-13.2-9.4-18.8
	c-1.9-2.5-4.3-4.6-7.1-6.1c-1.6-0.9-3.2-1.5-5-1.7c7-2.4,13.7-5.5,20.2-8.9c11.7-6.1,24.2-9.3,37.4-8.6c4.3,0.2,8.5,0,12.8-0.6
	c8.1-1.1,15.6-3.5,22.9-7c7.5-3.6,15.5-5.6,23.9-5.4c4.7,0.1,9.2,0.7,13.7,0.9c9.8,0.5,19.5-0.7,28.9-3.4c8.2-2.4,16.5-4.8,24.8-6.2
	c5.5-1,10.8-1.5,16.3-0.2c2.1,0.6,4.4,0.9,6.6,1c7.6,0.4,14.7-1.4,21.5-4.6c3.4-1.7,6.9-3.1,10.6-4.2c5.6-1.6,11.1-2,16.7-0.6
	c6.7,1.8,13.2,4.1,19.4,7.1c6,2.8,8.7,7.8,8.5,14.3c-0.1,1.8,0,3.6,0.3,5.4c1.2,6.4,5.4,10.5,11.1,13.5c0-0.3,0-0.5,0-0.8
	c0.5,0.9,1,1.8,1.5,2.6c0.2,0.3,0.4,0.4,0.7,0.5c-0.2,19.6-0.5,39.2-0.7,58.8c-3.5-1.3-7-2.4-10.4-3.7c17.5,13.9,42.8,16.5,62.6,6.3
	c-2.9,0.5-5.7,1.1-8.4,1.6l-1.5,0.3c1.3-0.3,0-43.2-0.1-47.4c0-0.3,0-0.7,0-1c0.7,0.7,1.4,1.3,2.2,1.8c0,0.1,0,0.1,0,0.2
	c0,1.1,0.7,1.3,1.4,1.6c3.6,1.7,7.1,3.3,10.7,5c6.1,3,12.4,5.8,18.4,9.2c2.1,0.9,4.2,1.9,6.2,3.1c0.2,0.2,0.5,0.3,0.8,0.4
	c14.1,7.3,28.1,14.9,41.8,22.8c44.2,25.2,86.1,54,126.4,85.1c11.2,8.7,21.8,17.8,33.5,25.8c2.4,1.7,4.7,3.4,6.9,5.4
	c2,1.8,3.9,3.7,5.6,5.8c1.9,2.6,3.2,5.6,3.8,8.8c0.4,2-0.3,2.9-2.2,3.5c-1.4,0.4-2.8,0.4-4.2,0.6c-4.7,0.5-9.5,0.9-14.1-0.1
	c-12.5-2.5-24.8-5.7-37.2-8.7c-48.2-11.9-96.4-23.9-144.6-35.8c-21-5.3-42.1-10.2-63.2-14.8c-19.2-4.2-38.5-8.2-57.7-12
	c-12.4-2.5-24.8-4.8-37.4-6.5c-8.7-1.3-17.3-2.6-26-3.9c-10-1.6-20.1-3.3-30.1-5.1c-13.7-2.4-27.6-4.9-41.3-7.4
	c-16.4-3-32.8-6.1-49.2-9.3c-12.9-2.4-25.8-4.7-38.5-8c-0.9-0.2-1.8-0.4-2.6-0.6c-0.5-0.2-0.9,0-1,0.6c-0.1,0.6-0.1,1.1-0.3,1.6
	c-0.5,1.1,0,1.6,1.1,1.8c5.2,1.1,10.2,2.3,15.4,3.3c13.9,2.7,27.9,5.4,41.9,8c14.7,2.7,29.4,5.6,44.1,8.3
	c13.4,2.5,26.8,5.1,40.2,7.5c12.5,2.3,24.9,4.3,37.5,6c8.3,1.3,16.6,2.4,24.8,3.9c12,2.1,24,4.3,35.9,6.5
	c14.9,2.8,29.7,5.7,44.4,9.3c30.4,7.2,60.8,14.6,91.2,22.2c40.8,10.1,81.6,20.3,122.5,30.4c9.7,2.4,19.6,5,29.5,6.7
	c6.6,1.2,13.3,1,19.8-1.1c0.5-0.2,1-0.6,1.6-0.1C639.7,421.5,639.5,423.9,638.9,426.1z"/>
</svg>
